# xmcd
#
# Track frame offsets:
#	150
#	12474
#	26418
#	41838
#	60477
#	72150
#	87297
#	100199
#	117255
#	126942
#
# Disc length: 1808 seconds
#
# Revision: 0
# Processed by: cddbd v1.5PL3 Copyright (c) Steve Scherf et al.
# Submitted via: EasyCDDAExtractor 4.5.0.2
#
DISCID=81070e0a
DTITLE=Ensaio dia 07jun04
DYEAR=2004
DGENRE=Blues
TTITLE0=Don't cry daddy
TTITLE1=what no my love
TTITLE2=always on my mind
TTITLE3=an american trilogy
TTITLE4=i'll remember you
TTITLE5=it's now or never
TTITLE6=kiss me quick
TTITLE7=my way
TTITLE8=return to sender
TTITLE9=welcome to my world
EXTD=
EXTT0=
EXTT1=
EXTT2=
EXTT3=
EXTT4=
EXTT5=
EXTT6=
EXTT7=
EXTT8=
EXTT9=
PLAYORDER=
